<svg version="1.1" id="Layer_1" xmlns="http://www.w3.org/2000/svg" xmlns:xlink="http://www.w3.org/1999/xlink" x="0px" y="0px"
	 width="100%" viewBox="0 0 500 500" enable-background="new 0 0 500 500" xml:space="preserve">
<path fill="#FFFFFF" opacity="1.000000" stroke="none" 
	d="
M337.000000,501.000000 
	C224.666687,501.000000 112.833389,501.000000 1.000060,501.000000 
	C1.000040,334.333405 1.000040,167.666794 1.000020,1.000149 
	C167.666565,1.000100 334.333130,1.000100 500.999756,1.000050 
	C500.999847,167.666519 500.999847,334.333038 500.999939,500.999786 
	C446.500000,501.000000 392.000000,501.000000 337.000000,501.000000 
M267.101532,147.892410 
	C266.603455,146.284912 266.105408,144.677429 266.272705,142.841980 
	C267.949127,141.616547 269.625519,140.391098 272.020050,139.048340 
	C276.344421,137.616013 280.668762,136.183685 285.868622,134.831024 
	C287.913269,134.763718 289.957916,134.696411 292.751892,134.873154 
	C299.679901,135.681717 305.026642,139.473541 310.320160,144.591644 
	C312.599823,148.063019 314.879456,151.534393 317.237915,155.761505 
	C320.331970,163.581223 321.202728,171.672684 319.983612,180.742004 
	C319.314178,183.490234 318.644745,186.238464 317.472900,189.448532 
	C314.493164,194.905075 311.513428,200.361618 308.045746,206.236420 
	C305.300110,210.465286 302.554443,214.694153 299.242950,219.258636 
	C296.790588,222.764328 294.338226,226.270020 291.300171,230.120560 
	C288.108368,234.373703 284.916595,238.626862 281.155151,243.181335 
	C271.722321,254.666763 262.289520,266.152191 252.856720,277.637604 
	C253.216187,278.000519 253.575668,278.363403 253.935135,278.726318 
	C264.698578,268.691284 275.462006,258.656281 286.774933,248.159180 
	C290.416962,244.432724 294.058960,240.706268 298.102142,236.414154 
	C300.845367,233.511078 303.588593,230.608002 306.805634,227.181244 
	C309.881531,223.486420 312.957458,219.791595 316.618225,215.761917 
	C320.152924,210.687485 323.687622,205.613052 327.775330,200.095047 
	C328.906891,197.820358 330.038452,195.545670 331.726929,192.816513 
	C333.081696,187.881149 334.436432,182.945770 335.998413,177.132797 
	C336.063721,174.439346 336.129028,171.745911 336.470459,168.374084 
	C336.105408,164.924957 335.740326,161.475845 335.439056,157.299438 
	C331.945801,142.886032 325.390442,130.541565 311.698029,122.214981 
	C308.795624,120.901680 305.893250,119.588379 302.310455,117.957108 
	C299.870605,117.421585 297.430786,116.886063 294.093628,116.106232 
	C290.061432,116.139511 286.029236,116.172791 281.255096,116.136185 
	C279.151031,116.691139 277.046936,117.246094 274.153839,117.825493 
	C269.720703,119.744194 265.287598,121.662888 260.178558,123.813629 
	C257.194092,125.760063 254.209641,127.706505 250.733780,129.045578 
	C247.142349,127.062706 243.550903,125.079826 239.414825,122.645462 
	C235.606064,121.503853 231.797287,120.362244 227.198593,119.008698 
	C224.456726,118.756050 221.714859,118.503403 218.131104,118.055023 
	C215.426697,118.393242 212.722305,118.731461 209.237366,118.963257 
	C206.832260,119.662598 204.427139,120.361938 201.326782,121.038612 
	C199.886444,121.695686 198.446106,122.352760 196.342438,123.030716 
	C194.848816,123.867973 193.355194,124.705231 191.223145,125.772247 
	C189.803604,126.807571 188.384064,127.842903 186.333649,129.066711 
	C184.888611,130.368103 183.443558,131.669495 181.389557,133.229965 
	C179.863083,135.021439 178.336624,136.812912 176.234787,138.976501 
	C164.077164,154.696304 162.250153,177.059586 171.973022,193.025421 
	C175.274612,197.492661 178.576218,201.959885 181.877823,206.427124 
	C182.040604,206.238434 182.203369,206.049744 182.366150,205.861053 
	C179.663834,199.877701 176.961533,193.894348 174.206406,187.030334 
	C171.773636,175.486282 172.746536,164.408371 179.137650,153.487259 
	C180.106430,152.026978 181.075211,150.566681 182.616440,148.790512 
	C184.080170,147.198990 185.543900,145.607452 187.606064,143.768692 
	C189.080414,142.541687 190.554779,141.314697 192.656525,139.862640 
	C193.765503,139.197357 194.874466,138.532074 196.657776,137.774689 
	C198.451263,136.892441 200.244766,136.010193 202.833786,135.107986 
	C204.887741,134.586227 206.941681,134.064453 209.851944,133.626617 
	C212.567261,133.424377 215.282562,133.222137 218.705673,133.328644 
	C221.471100,133.879379 224.236526,134.430115 227.535095,135.424652 
	C231.334839,137.347397 235.134567,139.270142 239.146561,141.647934 
	C239.446548,141.780838 239.746521,141.913742 240.075180,142.779175 
	C239.235580,144.794022 238.395981,146.808868 237.093323,149.345657 
	C236.271271,152.194000 235.206345,154.997314 234.668365,157.898346 
	C232.063614,171.944580 241.756317,182.189041 256.817047,180.703476 
	C268.542145,177.419205 273.275604,169.098480 270.357422,156.088608 
	C269.960083,155.034241 269.562744,153.979889 269.108948,152.237656 
	C268.494385,151.028305 267.879822,149.818939 267.101532,147.892410 
M210.676468,229.201553 
	C212.330994,223.340591 213.985535,217.479630 215.640060,211.618668 
	C215.241821,211.467911 214.843582,211.317154 214.445328,211.166382 
	C211.316284,215.096481 208.187241,219.026566 205.120010,222.878998 
	C197.081161,217.551666 197.003510,217.408264 196.217010,206.783798 
	C192.346451,210.119629 188.691956,213.269226 185.010834,216.441757 
	C188.241333,217.438507 191.805145,217.654434 194.082184,219.477524 
	C196.594818,221.489243 197.927017,224.975266 199.945465,228.084167 
	C194.646835,230.732269 190.213165,232.948059 185.779495,235.163864 
	C185.963013,235.806564 186.146530,236.449249 186.330048,237.091949 
	C190.623611,236.428131 194.944214,235.900803 199.202271,235.057663 
	C202.662292,234.372543 205.012466,235.127777 207.297821,238.137299 
	C208.934799,240.293015 211.971817,241.385590 214.616730,243.103531 
	C217.741150,236.353088 212.889359,233.684860 210.676468,229.201553 
M308.593201,310.980927 
	C307.982971,312.688934 306.977509,314.366882 306.845032,316.111176 
	C306.571289,319.715881 306.762543,323.355896 306.762543,326.981384 
	C306.305328,327.049835 305.848114,327.118256 305.390869,327.186707 
	C301.763367,322.490570 298.208374,317.735046 294.451141,313.145111 
	C293.636292,312.149658 292.095490,311.748505 290.889038,311.073639 
	C290.311584,312.325317 289.274628,313.562744 289.235352,314.831085 
	C289.055328,320.641266 288.992493,326.467529 289.257568,332.271088 
	C289.331970,333.899628 290.665741,335.470612 291.421783,337.068024 
	C292.233398,335.529663 293.608612,334.039581 293.745361,332.443451 
	C294.084137,328.489380 293.856628,324.486786 293.856628,319.159363 
	C298.596283,325.320221 302.264923,330.247253 306.145081,335.001648 
	C306.940125,335.975861 308.527252,336.303680 309.749268,336.929413 
	C310.242371,335.803345 311.136841,334.686157 311.161926,333.549805 
	C311.301270,327.238647 311.324951,320.920135 311.147339,314.610931 
	C311.112854,313.385651 310.012329,312.190369 308.593201,310.980927 
M172.022934,332.553986 
	C172.668533,333.523315 173.122284,334.763428 174.009384,335.391876 
	C175.064285,336.139282 176.491425,336.361267 177.757294,336.810913 
	C177.738571,335.515045 178.154190,333.989105 177.614075,332.969421 
	C176.343658,330.570984 174.616867,328.414246 172.971481,326.008789 
	C176.926926,324.174896 179.079819,321.026245 177.766068,317.121643 
	C176.999969,314.844757 174.532837,312.109528 172.340561,311.568695 
	C168.401016,310.596832 164.082245,310.940277 159.945679,311.167389 
	C159.069275,311.215485 157.618546,313.101807 157.584137,314.177979 
	C157.371429,320.833160 157.379578,327.502655 157.612396,334.157013 
	C157.647202,335.151550 159.249969,336.091187 160.127396,337.056244 
	C160.819870,336.099365 161.971207,335.204529 162.110733,334.172852 
	C162.415131,331.921875 162.204819,329.601288 162.204819,327.467346 
	C167.513504,325.216125 169.592300,328.520386 172.022934,332.553986 
M357.021088,310.811920 
	C356.027710,310.801483 355.026154,310.703156 354.042236,310.794586 
	C346.784912,311.468872 342.771576,316.507721 342.983185,324.627350 
	C343.181671,332.244202 347.664154,337.050812 354.795349,337.293640 
	C361.945770,337.537109 366.594177,333.548340 367.678528,326.238617 
	C368.814758,318.579102 365.167206,312.923920 357.021088,310.811920 
M316.281647,320.234375 
	C316.587463,323.660065 316.229462,327.321259 317.342987,330.460449 
	C319.400879,336.262085 326.044647,338.371918 333.957916,336.958557 
	C340.024384,335.875092 338.492920,331.354523 338.470245,327.643433 
	C338.460907,326.108307 337.521027,323.389008 336.696960,323.265900 
	C333.933014,322.852936 331.030548,323.367584 328.181091,323.527161 
	C328.158325,324.174866 328.135559,324.822571 328.112793,325.470276 
	C330.011017,325.975769 331.909241,326.481262 333.763092,326.974945 
	C333.763092,328.982117 333.763092,330.881531 333.763092,332.824371 
	C329.255096,333.634796 325.080627,334.293457 322.247864,330.011841 
	C320.134552,326.817688 320.401398,319.818756 322.879639,317.234528 
	C326.478241,313.481934 330.565063,314.308105 334.753937,316.349640 
	C335.560120,316.742554 336.774384,316.298035 337.800385,316.239838 
	C337.349762,315.119934 337.213074,313.629791 336.398499,312.939087 
	C330.211884,307.692932 319.869873,311.149658 316.281647,320.234375 
M249.219971,321.929382 
	C246.771576,321.929382 244.323181,321.929382 241.762421,321.929382 
	C241.762421,319.366974 241.762421,317.416748 241.762421,314.887207 
	C245.243820,314.887207 248.541992,315.053680 251.804108,314.784088 
	C252.762131,314.704895 253.617905,313.388763 254.520523,312.639557 
	C253.616653,312.088623 252.731979,311.102966 251.805603,311.062073 
	C247.819077,310.886139 243.793213,310.731934 239.843292,311.150818 
	C238.723938,311.269531 237.000626,313.317383 236.943329,314.545288 
	C236.648865,320.855927 236.648926,327.195129 236.945312,333.505615 
	C237.002289,334.718811 238.749832,336.736877 239.878159,336.855530 
	C243.828918,337.270905 247.854416,337.119232 251.840897,336.942688 
	C252.757004,336.902161 253.630722,335.904541 254.523972,335.347382 
	C253.608627,334.605682 252.739410,333.304382 251.769516,333.224457 
	C248.510559,332.955811 245.215729,333.122345 241.846695,333.122345 
	C241.846695,330.432953 241.846695,328.360535 241.846695,325.785675 
	C244.751846,325.785675 247.392059,325.965881 249.989273,325.709839 
	C251.292953,325.581299 252.518356,324.658813 253.779144,324.095367 
	C252.556824,323.373779 251.334503,322.652191 249.219971,321.929382 
M189.509705,316.882355 
	C186.993393,322.291138 184.373444,327.656189 182.057068,333.149292 
	C181.644012,334.128815 182.489563,335.639069 182.753967,336.904266 
	C183.798737,336.326843 185.612946,335.902985 185.763824,335.147125 
	C186.768326,330.114563 190.534790,330.964966 193.931580,331.001678 
	C197.396439,331.039124 201.377975,329.877197 202.619598,335.049896 
	C202.813583,335.858002 204.548248,336.296265 205.570526,336.905518 
	C205.852234,335.657898 206.730988,334.150940 206.319794,333.204315 
	C203.415390,326.518127 200.355240,319.892822 197.117538,313.360779 
	C195.365799,309.826660 193.095047,309.966003 191.077881,313.492645 
	C190.586411,314.351868 190.250488,315.300079 189.509705,316.882355 
M219.855011,336.948181 
	C221.179596,336.267670 223.177444,335.926239 223.718826,334.851288 
	C227.070175,328.196808 230.159958,321.406158 233.145111,314.577026 
	C233.528015,313.701050 232.801575,312.340149 232.589020,311.203857 
	C231.403976,311.745636 229.869965,311.997192 229.119080,312.900085 
	C228.098953,314.126740 227.690903,315.857544 226.997192,317.361450 
	C225.113144,321.445953 223.216858,325.524811 220.918564,330.483826 
	C217.960739,323.968414 215.606628,318.506714 212.958527,313.191467 
	C212.451904,312.174591 210.787125,311.734741 209.656693,311.028656 
	C209.328720,312.247681 208.370834,313.750427 208.771957,314.641022 
	C212.098709,322.026947 215.676636,329.299805 219.855011,336.948181 
M272.088074,337.024750 
	C273.323730,336.306732 274.559387,335.588715 275.795074,334.870697 
	C274.605499,334.254761 273.454468,333.220978 272.218628,333.107056 
	C269.351929,332.842804 266.444275,333.022919 263.335327,333.022919 
	C263.335327,329.243225 263.341125,326.267822 263.333710,323.292419 
	C263.325867,320.143799 263.471954,316.980408 263.194794,313.855042 
	C263.105042,312.843292 261.890747,311.931244 261.190857,310.973572 
	C260.294525,311.914062 258.724915,312.788208 258.624512,313.807129 
	C258.284698,317.255249 258.451508,320.754639 258.449799,324.234436 
	C258.443481,337.025940 258.447266,337.025940 272.088074,337.024750 
M140.951843,315.855713 
	C140.988998,321.491791 140.875244,327.135712 141.166489,332.758636 
	C141.241943,334.215240 142.585831,335.606140 143.347076,337.027222 
	C144.227768,335.577911 145.791000,334.163940 145.868286,332.672974 
	C146.166199,326.924805 145.989136,321.151978 145.989136,314.960693 
	C148.393906,314.960693 150.374893,315.158630 152.283905,314.873901 
	C153.185440,314.739471 153.948959,313.679901 154.775024,313.039490 
	C154.000351,312.362061 153.241074,311.118958 152.448547,311.097382 
	C146.484268,310.935028 140.511215,310.937073 134.547394,311.110565 
	C133.787811,311.132660 133.065704,312.442841 132.326233,313.156281 
	C133.185776,313.760773 133.980270,314.721771 134.918869,314.893036 
	C136.691116,315.216431 138.546280,315.085480 140.951843,315.855713 
M281.439331,310.951355 
	C280.625122,312.149689 279.153351,313.323242 279.107056,314.550507 
	C278.869019,320.864838 278.868744,327.197815 279.108948,333.511993 
	C279.155182,334.727539 280.645813,335.888123 281.470123,337.074066 
	C282.287048,335.856171 283.762512,334.663361 283.809998,333.416168 
	C284.050507,327.102051 283.998657,320.771912 283.846832,314.452271 
	C283.819580,313.317993 282.842773,312.206482 281.439331,310.951355 
M250.491974,280.526184 
	C250.491974,280.526184 250.496475,280.485748 250.491974,280.526184 
z"/>
<path fill="#E833A2" opacity="1.000000" stroke="none" 
	d="
M210.785004,229.589935 
	C212.889359,233.684860 217.741150,236.353088 214.616730,243.103531 
	C211.971817,241.385590 208.934799,240.293015 207.297821,238.137299 
	C205.012466,235.127777 202.662292,234.372543 199.202271,235.057663 
	C194.944214,235.900803 190.623611,236.428131 186.330048,237.091949 
	C186.146530,236.449249 185.963013,235.806564 185.779495,235.163864 
	C190.213165,232.948059 194.646835,230.732269 199.945465,228.084167 
	C197.927017,224.975266 196.594818,221.489243 194.082184,219.477524 
	C191.805145,217.654434 188.241333,217.438507 185.010834,216.441757 
	C188.691956,213.269226 192.346451,210.119629 196.217010,206.783798 
	C197.003510,217.408264 197.081161,217.551666 205.120010,222.878998 
	C208.187241,219.026566 211.316284,215.096481 214.445328,211.166382 
	C214.843582,211.317154 215.241821,211.467911 215.640060,211.618668 
	C213.985535,217.479630 212.330994,223.340591 210.785004,229.589935 
z"/>
<path fill="#A428B3" opacity="1.000000" stroke="none" 
	d="
M256.102966,180.686417 
	C241.756317,182.189041 232.063614,171.944580 234.668365,157.898346 
	C235.206345,154.997314 236.271271,152.194000 237.671295,149.226288 
	C242.755188,155.331741 247.261108,161.556580 251.897522,167.961670 
	C252.677734,167.144989 253.228394,166.568573 253.830200,166.439484 
	C254.621872,171.486679 255.362427,176.086548 256.102966,180.686417 
z"/>
<path fill="#5151D1" opacity="1.000000" stroke="none" 
	d="
M336.194336,169.052460 
	C336.129028,171.745911 336.063721,174.439346 335.571106,177.506195 
	C330.722015,171.507629 326.391327,165.069046 321.814453,158.810486 
	C320.669434,157.244766 318.732239,156.258392 317.159119,155.005768 
	C314.879456,151.534393 312.599823,148.063019 310.401337,144.098007 
	C309.528534,141.413498 308.788055,139.096481 307.581757,137.054688 
	C303.473358,130.100998 299.200836,123.244278 294.990936,116.350548 
	C297.430786,116.886063 299.870605,117.421585 302.653564,118.484200 
	C303.385620,120.240082 303.523041,121.632980 304.201508,122.672913 
	C313.720612,137.263412 323.289703,151.821579 332.934418,166.329224 
	C333.686005,167.459732 335.092346,168.154938 336.194336,169.052460 
z"/>
<path fill="#5D5D5D" opacity="1.000000" stroke="none" 
	d="
M308.998352,310.981079 
	C310.012329,312.190369 311.112854,313.385651 311.147339,314.610931 
	C311.324951,320.920135 311.301270,327.238647 311.161926,333.549805 
	C311.136841,334.686157 310.242371,335.803345 309.749268,336.929413 
	C308.527252,336.303680 306.940125,335.975861 306.145081,335.001648 
	C302.264923,330.247253 298.596283,325.320221 293.856628,319.159363 
	C293.856628,324.486786 294.084137,328.489380 293.745361,332.443451 
	C293.608612,334.039581 292.233398,335.529663 291.421814,337.068024 
	C290.665741,335.470612 289.331970,333.899628 289.257568,332.271088 
	C288.992493,326.467529 289.055328,320.641266 289.235352,314.831085 
	C289.274628,313.562744 290.311584,312.325317 290.889038,311.073639 
	C292.095490,311.748505 293.636292,312.149658 294.451141,313.145111 
	C298.208374,317.735046 301.763367,322.490570 305.390869,327.186707 
	C305.848114,327.118256 306.305328,327.049835 306.762543,326.981384 
	C306.762543,323.355896 306.571289,319.715881 306.845032,316.111176 
	C306.977509,314.366882 307.982971,312.688934 308.998352,310.981079 
z"/>
<path fill="#2E8CE4" opacity="1.000000" stroke="none" 
	d="
M171.873413,192.361237 
	C162.250153,177.059586 164.077164,154.696304 176.603760,139.209015 
	C177.076920,141.491364 177.056412,143.557098 177.315399,145.587173 
	C177.675598,148.410645 178.245209,151.207413 178.725174,154.015610 
	C172.746536,164.408371 171.773636,175.486282 173.884598,187.637909 
	C172.999664,189.617416 172.436554,190.989334 171.873413,192.361237 
z"/>
<path fill="#9623B6" opacity="1.000000" stroke="none" 
	d="
M253.779053,165.992172 
	C253.228394,166.568573 252.677734,167.144989 251.897522,167.961670 
	C247.261108,161.556580 242.755188,155.331741 237.902832,148.965302 
	C238.395981,146.808868 239.235580,144.794022 240.355011,142.258392 
	C242.704742,139.481918 244.774628,137.226212 247.164520,135.107132 
	C248.815262,136.862930 250.180344,138.455292 251.469482,140.106918 
	C254.030350,143.387894 256.549347,146.701523 258.970276,150.263168 
	C258.629059,151.041336 258.403259,151.557999 258.084656,152.402405 
	C257.634491,153.791458 257.277130,154.852798 256.660034,156.158356 
	C255.921875,158.252808 255.443405,160.103027 254.800262,162.266861 
	C254.350082,163.717712 254.064575,164.854935 253.779053,165.992172 
z"/>
<path fill="#5D5D5D" opacity="1.000000" stroke="none" 
	d="
M171.824615,332.232971 
	C169.592300,328.520386 167.513504,325.216125 162.204819,327.467346 
	C162.204819,329.601288 162.415131,331.921875 162.110733,334.172852 
	C161.971207,335.204529 160.819870,336.099365 160.127380,337.056244 
	C159.249969,336.091187 157.647202,335.151550 157.612396,334.157013 
	C157.379578,327.502655 157.371429,320.833160 157.584137,314.177979 
	C157.618546,313.101807 159.069275,311.215485 159.945679,311.167389 
	C164.082245,310.940277 168.401016,310.596832 172.340561,311.568695 
	C174.532837,312.109528 176.999969,314.844757 177.766068,317.121643 
	C179.079819,321.026245 176.926926,324.174896 172.971481,326.008789 
	C174.616867,328.414246 176.343658,330.570984 177.614075,332.969421 
	C178.154190,333.989105 177.738571,335.515045 177.757294,336.810913 
	C176.491425,336.361267 175.064285,336.139282 174.009384,335.391876 
	C173.122284,334.763428 172.668533,333.523315 171.824615,332.232971 
M167.313202,314.849030 
	C165.723450,314.929840 164.133698,315.010681 162.465454,315.095490 
	C162.465454,317.837433 162.465454,320.208130 162.465454,323.050140 
	C166.545670,322.061035 171.892410,325.381226 173.328033,319.064545 
	C174.103943,315.650604 171.145020,314.773956 167.313202,314.849030 
z"/>
<path fill="#5D5D5D" opacity="1.000000" stroke="none" 
	d="
M357.401703,310.853699 
	C365.167206,312.923920 368.814758,318.579102 367.678528,326.238617 
	C366.594177,333.548340 361.945770,337.537109 354.795349,337.293640 
	C347.664154,337.050812 343.181671,332.244202 342.983185,324.627350 
	C342.771576,316.507721 346.784912,311.468872 354.042236,310.794586 
	C355.026154,310.703156 356.027710,310.801483 357.401703,310.853699 
M348.210449,320.232697 
	C348.175446,322.543793 347.809082,324.908661 348.173370,327.154999 
	C348.970184,332.068176 353.163788,334.574890 357.786835,332.993164 
	C362.167480,331.494324 362.942444,327.711823 362.895599,323.739441 
	C362.850708,319.932159 361.973663,316.240845 357.749359,315.046967 
	C353.611481,313.877472 350.194672,315.066071 348.210449,320.232697 
z"/>
<path fill="#5D5D5D" opacity="1.000000" stroke="none" 
	d="
M316.420105,319.847534 
	C319.869873,311.149658 330.211884,307.692932 336.398499,312.939087 
	C337.213074,313.629791 337.349762,315.119934 337.800415,316.239838 
	C336.774384,316.298035 335.560120,316.742554 334.753937,316.349640 
	C330.565063,314.308105 326.478241,313.481934 322.879639,317.234528 
	C320.401398,319.818756 320.134552,326.817688 322.247864,330.011841 
	C325.080627,334.293457 329.255096,333.634796 333.763092,332.824371 
	C333.763092,330.881531 333.763092,328.982117 333.763092,326.974945 
	C331.909241,326.481262 330.011017,325.975769 328.112793,325.470276 
	C328.135559,324.822571 328.158325,324.174866 328.181091,323.527161 
	C331.030548,323.367584 333.933014,322.852936 336.696960,323.265900 
	C337.521027,323.389008 338.460907,326.108307 338.470245,327.643433 
	C338.492920,331.354523 340.024384,335.875092 333.957916,336.958557 
	C326.044647,338.371918 319.400879,336.262085 317.342987,330.460449 
	C316.229462,327.321259 316.587463,323.660065 316.420105,319.847534 
z"/>
<path fill="#8522BB" opacity="1.000000" stroke="none" 
	d="
M259.085663,150.001663 
	C256.549347,146.701523 254.030350,143.387894 251.469482,140.106918 
	C250.180344,138.455292 248.815262,136.862930 247.329971,134.822723 
	C248.525345,132.818771 249.875259,131.235855 251.225174,129.652939 
	C254.209641,127.706505 257.194092,125.760063 260.576172,124.083214 
	C264.416504,129.290421 267.859222,134.228027 271.301941,139.165649 
	C269.625519,140.391098 267.949127,141.616547 265.707520,143.141388 
	C263.123413,145.627747 261.104553,147.814697 259.085663,150.001663 
z"/>
<path fill="#495CD5" opacity="1.000000" stroke="none" 
	d="
M336.332397,168.713272 
	C335.092346,168.154938 333.686005,167.459732 332.934418,166.329224 
	C323.289703,151.821579 313.720612,137.263412 304.201508,122.672913 
	C303.523041,121.632980 303.385620,120.240082 302.993744,118.643188 
	C305.893250,119.588379 308.795624,120.901680 311.873840,122.869324 
	C312.225403,124.317436 312.193848,125.245438 312.607910,125.884842 
	C318.897705,135.597534 325.199463,145.303513 331.635468,154.919327 
	C332.499939,156.210892 334.110321,157.003204 335.375275,158.026718 
	C335.740326,161.475845 336.105408,164.924957 336.332397,168.713272 
z"/>
<path fill="#7521C0" opacity="1.000000" stroke="none" 
	d="
M271.661011,139.106995 
	C267.859222,134.228027 264.416504,129.290421 260.914124,123.967194 
	C265.287598,121.662888 269.720703,119.744194 274.592377,118.178070 
	C278.351654,123.937553 281.672394,129.344467 284.993134,134.751373 
	C280.668762,136.183685 276.344421,137.616013 271.661011,139.106995 
z"/>
<path fill="#5C40CC" opacity="1.000000" stroke="none" 
	d="
M317.198517,155.383636 
	C318.732239,156.258392 320.669434,157.244766 321.814453,158.810486 
	C326.391327,165.069046 330.722015,171.507629 335.467468,177.945007 
	C334.436432,182.945770 333.081696,187.881149 331.295227,192.711777 
	C328.622864,189.163177 326.519318,185.616882 324.065613,182.332138 
	C323.230255,181.213867 321.513580,180.753922 320.199615,179.993164 
	C321.202728,171.672684 320.331970,163.581223 317.198517,155.383636 
z"/>
<path fill="#15AEF0" opacity="1.000000" stroke="none" 
	d="
M253.830200,166.439484 
	C254.064575,164.854935 254.350082,163.717712 255.197754,162.280319 
	C260.649170,160.246109 265.538422,158.512054 270.427673,156.778000 
	C273.275604,169.098480 268.542145,177.419205 256.460022,180.694946 
	C255.362427,176.086548 254.621872,171.486679 253.830200,166.439484 
z"/>
<path fill="#5D5D5D" opacity="1.000000" stroke="none" 
	d="
M249.666077,321.929993 
	C251.334503,322.652191 252.556824,323.373779 253.779144,324.095367 
	C252.518356,324.658813 251.292953,325.581299 249.989273,325.709839 
	C247.392059,325.965881 244.751846,325.785675 241.846695,325.785675 
	C241.846695,328.360535 241.846695,330.432953 241.846695,333.122345 
	C245.215729,333.122345 248.510559,332.955811 251.769516,333.224457 
	C252.739410,333.304382 253.608627,334.605682 254.523956,335.347382 
	C253.630722,335.904541 252.757004,336.902161 251.840897,336.942688 
	C247.854416,337.119232 243.828918,337.270905 239.878159,336.855530 
	C238.749832,336.736877 237.002289,334.718811 236.945312,333.505615 
	C236.648926,327.195129 236.648865,320.855927 236.943329,314.545288 
	C237.000626,313.317383 238.723938,311.269531 239.843292,311.150818 
	C243.793213,310.731934 247.819077,310.886139 251.805603,311.062073 
	C252.731979,311.102966 253.616653,312.088623 254.520523,312.639557 
	C253.617905,313.388763 252.762131,314.704895 251.804108,314.784088 
	C248.541992,315.053680 245.243820,314.887207 241.762421,314.887207 
	C241.762421,317.416748 241.762421,319.366974 241.762421,321.929382 
	C244.323181,321.929382 246.771576,321.929382 249.666077,321.929993 
z"/>
<path fill="#5C40CC" opacity="1.000000" stroke="none" 
	d="
M294.542297,116.228394 
	C299.200836,123.244278 303.473358,130.100998 307.581757,137.054688 
	C308.788055,139.096481 309.528534,141.413498 310.231781,143.804947 
	C305.026642,139.473541 299.679901,135.681717 292.365173,134.406174 
	C291.173676,132.369949 290.427002,130.767502 289.553009,129.237793 
	C287.062103,124.878021 284.519379,120.547874 281.997040,116.206070 
	C286.029236,116.172791 290.061432,116.139511 294.542297,116.228394 
z"/>
<path fill="#5D5D5D" opacity="1.000000" stroke="none" 
	d="
M189.676376,316.544861 
	C190.250488,315.300079 190.586411,314.351868 191.077881,313.492645 
	C193.095047,309.966003 195.365799,309.826660 197.117538,313.360779 
	C200.355240,319.892822 203.415390,326.518127 206.319794,333.204315 
	C206.730988,334.150940 205.852234,335.657898 205.570511,336.905518 
	C204.548248,336.296265 202.813583,335.858002 202.619598,335.049896 
	C201.377975,329.877197 197.396439,331.039124 193.931580,331.001678 
	C190.534790,330.964966 186.768326,330.114563 185.763824,335.147125 
	C185.612946,335.902985 183.798737,336.326843 182.753967,336.904266 
	C182.489563,335.639069 181.644012,334.128815 182.057068,333.149292 
	C184.373444,327.656189 186.993393,322.291138 189.676376,316.544861 
M196.097748,320.675140 
	C195.592163,319.571533 195.086563,318.467926 194.187225,316.504822 
	C192.451141,320.428833 191.100342,323.482025 189.634308,326.795624 
	C192.990219,326.795624 195.549637,326.795624 198.637115,326.795624 
	C197.772675,324.687012 197.093918,323.031342 196.097748,320.675140 
z"/>
<path fill="#7521C0" opacity="1.000000" stroke="none" 
	d="
M308.533691,205.818161 
	C311.513428,200.361618 314.493164,194.905075 318.074524,189.256927 
	C321.524902,192.889740 324.373627,196.714188 327.222321,200.538635 
	C323.687622,205.613052 320.152924,210.687485 316.286987,215.572052 
	C313.481720,212.194168 311.007721,209.006165 308.533691,205.818161 
z"/>
<path fill="#5D5D5D" opacity="1.000000" stroke="none" 
	d="
M219.516800,336.777527 
	C215.676636,329.299805 212.098709,322.026947 208.771957,314.641022 
	C208.370834,313.750427 209.328720,312.247681 209.656677,311.028687 
	C210.787125,311.734741 212.451904,312.174591 212.958527,313.191467 
	C215.606628,318.506714 217.960739,323.968414 220.918564,330.483826 
	C223.216858,325.524811 225.113144,321.445953 226.997192,317.361450 
	C227.690903,315.857544 228.098953,314.126740 229.119080,312.900085 
	C229.869965,311.997192 231.403976,311.745636 232.589020,311.203857 
	C232.801575,312.340149 233.528015,313.701050 233.145111,314.577026 
	C230.159958,321.406158 227.070175,328.196808 223.718826,334.851288 
	C223.177444,335.926239 221.179596,336.267670 219.516800,336.777527 
z"/>
<path fill="#BA29AC" opacity="1.000000" stroke="none" 
	d="
M286.225433,248.621246 
	C275.462006,258.656281 264.698578,268.691284 253.935135,278.726318 
	C253.575668,278.363403 253.216187,278.000519 252.856720,277.637604 
	C262.289520,266.152191 271.722321,254.666763 281.771790,243.183167 
	C283.667419,244.997086 284.946442,246.809158 286.225433,248.621246 
z"/>
<path fill="#BA29AC" opacity="1.000000" stroke="none" 
	d="
M227.988525,119.220634 
	C231.797287,120.362244 235.606064,121.503853 239.698868,123.324898 
	C239.633377,129.733856 239.283844,135.463364 238.934296,141.192886 
	C235.134567,139.270142 231.334839,137.347397 227.267700,134.739853 
	C227.329727,129.110245 227.659134,124.165443 227.988525,119.220634 
z"/>
<path fill="#5D5D5D" opacity="1.000000" stroke="none" 
	d="
M271.634338,337.025024 
	C258.447266,337.025940 258.443481,337.025940 258.449799,324.234436 
	C258.451508,320.754639 258.284698,317.255249 258.624512,313.807129 
	C258.724915,312.788208 260.294525,311.914062 261.190857,310.973572 
	C261.890747,311.931244 263.105042,312.843292 263.194794,313.855042 
	C263.471954,316.980408 263.325867,320.143799 263.333710,323.292419 
	C263.341125,326.267822 263.335327,329.243225 263.335327,333.022919 
	C266.444275,333.022919 269.351929,332.842804 272.218628,333.107056 
	C273.454468,333.220978 274.605499,334.254761 275.795074,334.870667 
	C274.559387,335.588715 273.323730,336.306732 271.634338,337.025024 
z"/>
<path fill="#466BDA" opacity="1.000000" stroke="none" 
	d="
M335.407166,157.663086 
	C334.110321,157.003204 332.499939,156.210892 331.635468,154.919327 
	C325.199463,145.303513 318.897705,135.597534 312.607910,125.884842 
	C312.193848,125.245438 312.225403,124.317436 312.072693,123.137154 
	C325.390442,130.541565 331.945801,142.886032 335.407166,157.663086 
z"/>
<path fill="#5D5D5D" opacity="1.000000" stroke="none" 
	d="
M140.659409,315.499512 
	C138.546280,315.085480 136.691116,315.216431 134.918869,314.893036 
	C133.980270,314.721771 133.185776,313.760773 132.326233,313.156281 
	C133.065704,312.442841 133.787811,311.132660 134.547394,311.110565 
	C140.511215,310.937073 146.484268,310.935028 152.448547,311.097382 
	C153.241074,311.118958 154.000351,312.362061 154.775024,313.039490 
	C153.948959,313.679901 153.185440,314.739471 152.283905,314.873901 
	C150.374893,315.158630 148.393906,314.960693 145.989136,314.960693 
	C145.989136,321.151978 146.166199,326.924805 145.868286,332.672974 
	C145.791000,334.163940 144.227768,335.577911 143.347076,337.027222 
	C142.585831,335.606140 141.241943,334.215240 141.166489,332.758636 
	C140.875244,327.135712 140.988998,321.491791 140.659409,315.499512 
z"/>
<path fill="#8522BB" opacity="1.000000" stroke="none" 
	d="
M308.289734,206.027283 
	C311.007721,209.006165 313.481720,212.194168 315.994568,215.739471 
	C312.957458,219.791595 309.881531,223.486420 306.420654,227.071747 
	C303.960052,224.282516 301.884430,221.602768 299.808777,218.923019 
	C302.554443,214.694153 305.300110,210.465286 308.289734,206.027283 
z"/>
<path fill="#9623B6" opacity="1.000000" stroke="none" 
	d="
M299.525879,219.090820 
	C301.884430,221.602768 303.960052,224.282516 306.183777,227.333588 
	C303.588593,230.608002 300.845367,233.511078 297.575439,236.647858 
	C295.327789,234.512939 293.606842,232.144333 291.885895,229.775726 
	C294.338226,226.270020 296.790588,222.764328 299.525879,219.090820 
z"/>
<path fill="#A428B3" opacity="1.000000" stroke="none" 
	d="
M227.593567,119.114670 
	C227.659134,124.165443 227.329727,129.110245 227.001129,134.517944 
	C224.236526,134.430115 221.471100,133.879379 218.352234,132.714783 
	C218.323532,127.484200 218.648270,122.867477 218.972992,118.250755 
	C221.714859,118.503403 224.456726,118.756050 227.593567,119.114670 
z"/>
<path fill="#672BC5" opacity="1.000000" stroke="none" 
	d="
M281.626068,116.171127 
	C284.519379,120.547874 287.062103,124.878021 289.553009,129.237793 
	C290.427002,130.767502 291.173676,132.369949 291.990509,134.284149 
	C289.957916,134.696411 287.913269,134.763718 285.430878,134.791199 
	C281.672394,129.344467 278.351654,123.937553 274.986877,118.165848 
	C277.046936,117.246094 279.151031,116.691139 281.626068,116.171127 
z"/>
<path fill="#8522BB" opacity="1.000000" stroke="none" 
	d="
M218.552048,118.152893 
	C218.648270,122.867477 218.323532,127.484200 217.998352,132.560425 
	C215.282562,133.222137 212.567261,133.424377 209.423248,133.172272 
	C209.335678,128.168503 209.676788,123.619087 210.017899,119.069672 
	C212.722305,118.731461 215.426697,118.393242 218.552048,118.152893 
z"/>
<path fill="#A428B3" opacity="1.000000" stroke="none" 
	d="
M291.593018,229.948151 
	C293.606842,232.144333 295.327789,234.512939 297.374878,236.930695 
	C294.058960,240.706268 290.416962,244.432724 286.500183,248.390213 
	C284.946442,246.809158 283.667419,244.997086 282.056610,243.032501 
	C284.916595,238.626862 288.108368,234.373703 291.593018,229.948151 
z"/>
<path fill="#672BC5" opacity="1.000000" stroke="none" 
	d="
M327.498840,200.316833 
	C324.373627,196.714188 321.524902,192.889740 318.325745,189.026001 
	C318.644745,186.238464 319.314178,183.490234 320.091614,180.367584 
	C321.513580,180.753922 323.230255,181.213867 324.065613,182.332138 
	C326.519318,185.616882 328.622864,189.163177 331.016785,192.938995 
	C330.038452,195.545670 328.906891,197.820358 327.498840,200.316833 
z"/>
<path fill="#5D5D5D" opacity="1.000000" stroke="none" 
	d="
M281.871826,311.017914 
	C282.842773,312.206482 283.819580,313.317993 283.846832,314.452271 
	C283.998657,320.771912 284.050507,327.102051 283.809998,333.416168 
	C283.762512,334.663361 282.287048,335.856171 281.470123,337.074066 
	C280.645813,335.888123 279.155182,334.727539 279.108948,333.511993 
	C278.868744,327.197815 278.869019,320.864838 279.107056,314.550507 
	C279.153351,313.323242 280.625122,312.149689 281.871826,311.017914 
z"/>
<path fill="#E833A2" opacity="1.000000" stroke="none" 
	d="
M239.040436,141.420410 
	C239.283844,135.463364 239.633377,129.733856 239.971191,123.550644 
	C243.550903,125.079826 247.142349,127.062706 250.979477,129.349258 
	C249.875259,131.235855 248.525345,132.818771 247.009949,134.686096 
	C244.774628,137.226212 242.704742,139.481918 240.340683,141.892136 
	C239.746521,141.913742 239.446548,141.780838 239.040436,141.420410 
z"/>
<path fill="#7521C0" opacity="1.000000" stroke="none" 
	d="
M209.627625,119.016464 
	C209.676788,123.619087 209.335678,128.168503 208.995102,133.130295 
	C206.941681,134.064453 204.887741,134.586227 202.424896,134.644974 
	C202.018005,129.808395 202.020020,125.434837 202.022034,121.061272 
	C204.427139,120.361938 206.832260,119.662598 209.627625,119.016464 
z"/>
<path fill="#466BDA" opacity="1.000000" stroke="none" 
	d="
M178.931412,153.751434 
	C178.245209,151.207413 177.675598,148.410645 177.315399,145.587173 
	C177.056412,143.557098 177.076920,141.491364 176.891449,139.022980 
	C178.336624,136.812912 179.863083,135.021439 181.696640,133.569824 
	C182.017151,138.975266 182.030563,144.040817 182.043991,149.106384 
	C181.075211,150.566681 180.106430,152.026978 178.931412,153.751434 
z"/>
<path fill="#495CD5" opacity="1.000000" stroke="none" 
	d="
M182.330215,148.948456 
	C182.030563,144.040817 182.017151,138.975266 182.001114,133.440292 
	C183.443558,131.669495 184.888611,130.368103 186.660202,129.447205 
	C186.993713,134.557114 187.000671,139.286514 187.007629,144.015915 
	C185.543900,145.607452 184.080170,147.198990 182.330215,148.948456 
z"/>
<path fill="#672BC5" opacity="1.000000" stroke="none" 
	d="
M201.674408,121.049942 
	C202.020020,125.434837 202.018005,129.808395 202.027130,134.654953 
	C200.244766,136.010193 198.451263,136.892441 196.329987,137.402679 
	C196.336716,132.357071 196.671249,127.683449 197.005768,123.009834 
	C198.446106,122.352760 199.886444,121.695686 201.674408,121.049942 
z"/>
<path fill="#5151D1" opacity="1.000000" stroke="none" 
	d="
M187.306854,143.892303 
	C187.000671,139.286514 186.993713,134.557114 186.975647,129.352966 
	C188.384064,127.842903 189.803604,126.807571 191.580872,126.157555 
	C191.968765,131.057800 191.998947,135.572754 192.029129,140.087692 
	C190.554779,141.314697 189.080414,142.541687 187.306854,143.892303 
z"/>
<path fill="#2E8CE4" opacity="1.000000" stroke="none" 
	d="
M270.392548,156.433304 
	C265.538422,158.512054 260.649170,160.246109 255.362427,161.966705 
	C255.443405,160.103027 255.921875,158.252808 257.064911,156.192841 
	C261.541443,154.963898 265.353424,153.944702 269.165405,152.925507 
	C269.562744,153.979889 269.960083,155.034241 270.392548,156.433304 
z"/>
<path fill="#5C40CC" opacity="1.000000" stroke="none" 
	d="
M192.342834,139.975159 
	C191.998947,135.572754 191.968765,131.057800 191.900070,126.042671 
	C193.355194,124.705231 194.848816,123.867973 196.674103,123.020279 
	C196.671249,127.683449 196.336716,132.357071 195.992828,137.448730 
	C194.874466,138.532074 193.765503,139.197357 192.342834,139.975159 
z"/>
<path fill="#466BDA" opacity="1.000000" stroke="none" 
	d="
M171.923218,192.693329 
	C172.436554,190.989334 172.999664,189.617416 173.911011,188.078247 
	C176.961533,193.894348 179.663834,199.877701 182.366150,205.861053 
	C182.203369,206.049744 182.040604,206.238434 181.877823,206.427124 
	C178.576218,201.959885 175.274612,197.492661 171.923218,192.693329 
z"/>
<path fill="#466BDA" opacity="1.000000" stroke="none" 
	d="
M269.137177,152.581573 
	C265.353424,153.944702 261.541443,154.963898 257.324585,155.948608 
	C257.277130,154.852798 257.634491,153.791458 258.465851,152.377930 
	C261.714966,150.887009 264.490143,149.748291 267.265289,148.609573 
	C267.879822,149.818939 268.494385,151.028305 269.137177,152.581573 
z"/>
<path fill="#5C40CC" opacity="1.000000" stroke="none" 
	d="
M267.183411,148.250992 
	C264.490143,149.748291 261.714966,150.887009 258.558655,152.050201 
	C258.403259,151.557999 258.629059,151.041336 258.970276,150.263168 
	C261.104553,147.814697 263.123413,145.627747 265.374817,143.255356 
	C266.105408,144.677429 266.603455,146.284912 267.183411,148.250992 
z"/>
<path fill="#BA29AC" opacity="1.000000" stroke="none" 
	d="
M250.494232,280.505981 
	C250.496475,280.485748 250.491974,280.526184 250.494232,280.505981 
z"/>
<path fill="#FFFFFF" opacity="1.000000" stroke="none" 
	d="
M167.748688,314.851196 
	C171.145020,314.773956 174.103943,315.650604 173.328033,319.064545 
	C171.892410,325.381226 166.545670,322.061035 162.465454,323.050140 
	C162.465454,320.208130 162.465454,317.837433 162.465454,315.095490 
	C164.133698,315.010681 165.723450,314.929840 167.748688,314.851196 
z"/>
<path fill="#FFFFFF" opacity="1.000000" stroke="none" 
	d="
M348.353729,319.839386 
	C350.194672,315.066071 353.611481,313.877472 357.749359,315.046967 
	C361.973663,316.240845 362.850708,319.932159 362.895599,323.739441 
	C362.942444,327.711823 362.167480,331.494324 357.786835,332.993164 
	C353.163788,334.574890 348.970184,332.068176 348.173370,327.154999 
	C347.809082,324.908661 348.175446,322.543793 348.353729,319.839386 
z"/>
<path fill="#FFFFFF" opacity="1.000000" stroke="none" 
	d="
M196.256454,321.025391 
	C197.093918,323.031342 197.772675,324.687012 198.637115,326.795624 
	C195.549637,326.795624 192.990219,326.795624 189.634308,326.795624 
	C191.100342,323.482025 192.451141,320.428833 194.187225,316.504822 
	C195.086563,318.467926 195.592163,319.571533 196.256454,321.025391 
z"/>
</svg>